<svg xmlns="http://www.w3.org/2000/svg" xmlns:xlink="http://www.w3.org/1999/xlink" width="440" height="318" viewBox="0 0 440 318">
    <defs>
        <clipPath id="av0"><circle cx="44" cy="43" r="18" /></clipPath>
        <clipPath id="av1"><circle cx="44" cy="101" r="18" /></clipPath>
        <clipPath id="av2"><circle cx="44" cy="159" r="18" /></clipPath>
        <clipPath id="av3"><circle cx="44" cy="217" r="18" /></clipPath>
        <clipPath id="av4"><circle cx="44" cy="275" r="18" /></clipPath>
    </defs>
    <rect width="440" height="318" rx="12" fill="#0d1117" />

    <rect x="14" y="17" width="412" height="52" rx="8" fill="#161b22" />
    <image href="https://avatars.githubusercontent.com/u/31396011?v=4" x="26" y="25" width="36" height="36" clip-path="url(#av0)" />
    <text x="74" y="49" font-size="15" fill="#e6edf3" font-weight="400" font-family="'Segoe UI',system-ui,sans-serif">#53 Shubhamsaboo</text>
    <text x="420" y="44" font-size="13" fill="#e3b341" font-family="Segoe UI',system-ui,sans-serif" text-anchor="end" dominant-baseline="middle">★ 116979</text>
    <rect x="14" y="75" width="412" height="52" rx="8" fill="#0d1117" />
    <image href="https://avatars.githubusercontent.com/u/17043402?v=4" x="26" y="83" width="36" height="36" clip-path="url(#av1)" />
    <text x="74" y="107" font-size="15" fill="#e6edf3" font-weight="400" font-family="'Segoe UI',system-ui,sans-serif">#54 mouredev</text>
    <text x="420" y="102" font-size="13" fill="#e3b341" font-family="Segoe UI',system-ui,sans-serif" text-anchor="end" dominant-baseline="middle">★ 116472</text>
    <rect x="14" y="133" width="412" height="52" rx="8" fill="#1f6feb" />
    <image href="https://avatars.githubusercontent.com/u/1336778?v=3" x="26" y="141" width="36" height="36" clip-path="url(#av2)" />
    <text x="74" y="165" font-size="15" fill="#ffffff" font-weight="700" font-family="'Segoe UI',system-ui,sans-serif">#55 louislam</text>
    <text x="420" y="160" font-size="13" fill="#ffd700" font-family="Segoe UI',system-ui,sans-serif" text-anchor="end" dominant-baseline="middle">★ 113459</text>
    <rect x="14" y="191" width="412" height="52" rx="8" fill="#0d1117" />
    <image href="https://avatars.githubusercontent.com/u/1833474?v=3" x="26" y="199" width="36" height="36" clip-path="url(#av3)" />
    <text x="74" y="223" font-size="15" fill="#e6edf3" font-weight="400" font-family="'Segoe UI',system-ui,sans-serif">#56 wasabeef</text>
    <text x="420" y="218" font-size="13" fill="#e3b341" font-family="Segoe UI',system-ui,sans-serif" text-anchor="end" dominant-baseline="middle">★ 112946</text>
    <rect x="14" y="249" width="412" height="52" rx="8" fill="#161b22" />
    <image href="https://avatars.githubusercontent.com/u/456674?v=3" x="26" y="257" width="36" height="36" clip-path="url(#av4)" />
    <text x="74" y="281" font-size="15" fill="#e6edf3" font-weight="400" font-family="'Segoe UI',system-ui,sans-serif">#57 BurntSushi</text>
    <text x="420" y="276" font-size="13" fill="#e3b341" font-family="Segoe UI',system-ui,sans-serif" text-anchor="end" dominant-baseline="middle">★ 111604</text>
</svg>
